<?xml version="1.0" encoding="UTF-8" standalone="no"?>
<!-- Created with Inkscape (http://www.inkscape.org/) -->

<svg
   width="300"
   height="150"
   viewBox="0 0 300 150"
   version="1.1"
   id="svg1"
   inkscape:version="1.3.2 (091e20e, 2023-11-25, custom)"
   sodipodi:docname="picc-logo.svg"
   inkscape:export-filename="picc-logo.png"
   inkscape:export-xdpi="320"
   inkscape:export-ydpi="320"
   xmlns:inkscape="http://www.inkscape.org/namespaces/inkscape"
   xmlns:sodipodi="http://sodipodi.sourceforge.net/DTD/sodipodi-0.dtd"
   xmlns="http://www.w3.org/2000/svg"
   xmlns:svg="http://www.w3.org/2000/svg">
  <sodipodi:namedview
     id="namedview1"
     pagecolor="#b2ead6"
     bordercolor="#000000"
     borderopacity="0"
     inkscape:showpageshadow="2"
     inkscape:pageopacity="0.0"
     inkscape:pagecheckerboard="true"
     inkscape:deskcolor="#d1d1d1"
     inkscape:document-units="px"
     inkscape:zoom="1.770124"
     inkscape:cx="68.074327"
     inkscape:cy="169.76212"
     inkscape:window-width="1920"
     inkscape:window-height="986"
     inkscape:window-x="-11"
     inkscape:window-y="-11"
     inkscape:window-maximized="1"
     inkscape:current-layer="layer1"
     inkscape:export-bgcolor="#ffffffff" />
  <defs
     id="defs1">
    <rect
       x="27.56325"
       y="89.48069"
       width="335.15314"
       height="123.43542"
       id="rect2" />
    <rect
       x="31.158455"
       y="85.486015"
       width="233.28896"
       height="162.18375"
       id="rect1" />
    <rect
       x="31.158455"
       y="85.486015"
       width="233.28896"
       height="162.18375"
       id="rect1-8" />
  </defs>
  <g
     inkscape:label="Lager 1"
     inkscape:groupmode="layer"
     id="layer1"
     transform="translate(0.56493217,-80.220369)">
    <path
       style="font-weight:bold;font-size:96px;font-family:'Microsoft YaHei UI';-inkscape-font-specification:'Microsoft YaHei UI Bold';white-space:pre;fill:#1a1a1a"
       d="m 55.017578,145.33973 v 25.3125 H 39.548828 V 98.042856 h 24.984375 q 27.09375,0 27.09375,22.968754 0,11.15625 -8.203125,17.90625 -8.15625,6.70312 -20.4375,6.42187 z m 0,-35.29687 v 23.4375 h 6.703125 q 13.640625,0 13.640625,-11.85938 0,-11.57812 -13.5,-11.57812 z M 118.06445,98.042856 V 170.65223 H 102.5957 V 98.042856 Z"
       id="text1"
       inkscape:label="text1"
       transform="matrix(1.0135274,0,0,0.99449176,-4.5901837,8.1892755)"
       aria-label="PI" />
    <path
       d="m 167.07055,104.31508 a 37,37 0 0 0 -37,37 37,37 0 0 0 37,37 37,37 0 0 0 23.25,-8.34961 l -8.63672,-11.02148 a 22.5,22.5 0 0 1 -14.08398,5.09375 22.5,22.5 0 0 1 -22.5,-22.5 22.5,22.5 0 0 1 22.5,-22.5 22.5,22.5 0 0 1 15.0625,5.79687 l 9.4375,-10.75781 a 37,37 0 0 0 -25.0293,-9.76172 z"
       id="path4"
       inkscape:label="path4"
       style="fill:#1a1a1a;fill-opacity:1" />
    <path
       d="m 239.65111,104.07406 a 37,37 0 0 0 -37,37 37,37 0 0 0 37,37 37,37 0 0 0 23.25,-8.34961 l -8.63672,-11.02148 a 22.5,22.5 0 0 1 -14.08398,5.09375 22.5,22.5 0 0 1 -22.5,-22.5 22.5,22.5 0 0 1 22.5,-22.5 22.5,22.5 0 0 1 15.0625,5.79687 l 9.4375,-10.75781 a 37,37 0 0 0 -25.0293,-9.76172 z"
       id="path4-7"
       style="fill:#1a1a1a;fill-opacity:1" />
    <path
       d="m 240.20039,124.93024 a 16.441418,16.441418 0 0 0 -16.44142,16.44142 16.441418,16.441418 0 0 0 16.44142,16.44142 16.441418,16.441418 0 0 0 10.33143,-3.71025 l -3.83783,-4.89754 a 9.9981596,9.9981596 0 0 1 -6.2584,2.26347 9.9981596,9.9981596 0 0 1 -9.99816,-9.99816 9.9981596,9.9981596 0 0 1 9.99816,-9.99816 9.9981596,9.9981596 0 0 1 6.69321,2.57592 l 4.19368,-4.78037 a 16.441418,16.441418 0 0 0 -11.12209,-4.33775 z"
       id="path4-7-3"
       style="fill:#1a1a1a;fill-opacity:1;stroke-width:0.444363" />
    <path
       d="m 240.40474,135.51488 a 5.8415157,5.8415157 0 0 0 -5.84151,5.84153 5.8415157,5.8415157 0 0 0 5.84151,5.84151 5.8415157,5.8415157 0 0 0 3.67068,-1.31822 l -1.36354,-1.74007 a 3.5522731,3.5522731 0 0 1 -2.22357,0.8042 3.5522731,3.5522731 0 0 1 -3.55227,-3.55228 3.5522731,3.5522731 0 0 1 3.55227,-3.55226 3.5522731,3.5522731 0 0 1 2.37805,0.9152 l 1.48998,-1.69843 a 5.8415157,5.8415157 0 0 0 -3.9516,-1.54118 z"
       id="path4-7-3-2"
       style="fill:#1a1a1a;fill-opacity:1;stroke-width:0.157879" />
    <path
       style="font-weight:bold;font-size:29.3333px;font-family:'Microsoft YaHei UI';-inkscape-font-specification:'Microsoft YaHei UI Bold';fill:#ffa73e"
       d="m 112.96273,210.07751 q -3.2513,1.8763 -7.99218,1.8763 -5.299469,0 -8.36457,-2.97916 -3.065101,-2.97917 -3.065101,-8.14973 0,-5.24218 3.365882,-8.52213 3.380209,-3.29426 8.894519,-3.29426 3.55208,0 6.20182,1.0026 v 4.48307 q -2.57812,-1.50391 -6.30208,-1.50391 -3.20833,0 -5.19921,2.09114 -1.990884,2.09115 -1.990884,5.51432 0,3.48047 1.790364,5.42838 1.80468,1.94791 4.91275,1.94791 1.84766,0 3.02214,-0.57291 v -4.55468 h -4.48307 v -3.79557 h 9.20962 z m 22.71612,1.48958 h -5.4427 l -3.48046,-5.77213 q -1.07422,-1.79036 -1.76172,-2.30598 -0.6875,-0.51563 -1.46094,-0.51563 h -1.43229 v 8.59374 h -4.72655 v -22.18617 h 7.77733 q 7.92056,0 7.92056,6.01562 0,2.26302 -1.33203,3.8815 -1.3177,1.61849 -3.63801,2.27735 v 0.0573 q 1.53255,0.51562 3.39453,3.3802 z m -13.57811,-18.59112 v 6.38801 h 2.32031 q 1.66146,0 2.66406,-0.95963 1.01693,-0.97396 1.01693,-2.42057 0,-3.00781 -3.59505,-3.00781 z m 14.03644,7.79166 q 0,-5.21354 3.03646,-8.47916 3.05077,-3.27994 8.04947,-3.27994 4.7552,0 7.64843,3.16536 2.90754,3.16536 2.90754,8.1354 0,5.18489 -3.02213,8.42187 -3.00781,3.22265 -7.89192,3.22265 -4.76952,0 -7.74869,-3.12239 -2.97916,-3.13672 -2.97916,-8.06379 z m 4.97005,-0.25782 q 0,3.23698 1.56119,5.29948 1.5612,2.04817 4.28255,2.04817 2.77864,0 4.32552,-1.96224 1.54687,-1.97656 1.54687,-5.29947 0,-3.46614 -1.5039,-5.47135 -1.50391,-2.01953 -4.23958,-2.01953 -2.77865,0 -4.38281,2.0625 -1.58984,2.0625 -1.58984,5.34244 z m 38.32808,1.51823 q 0,9.92577 -9.22395,9.92577 -8.90884,0 -8.90884,-9.66796 v -12.90493 h 4.74088 v 12.93358 q 0,5.54296 4.36849,5.54296 4.29687,0 4.29687,-5.34244 v -13.1341 h 4.72655 z m 9.59634,1.80469 v 7.73436 h -4.72656 v -22.18617 h 7.63411 q 8.27864,0 8.27864,7.01822 0,3.40885 -2.50651,5.47135 -2.49219,2.04817 -6.24479,1.96224 z m 0,-10.78515 v 7.16145 h 2.04818 q 4.16796,0 4.16796,-3.62369 0,-3.53776 -4.125,-3.53776 z"
       id="text6"
       aria-label="GROUP" />
    <rect
       style="fill:#1a1a1a"
       id="rect6"
       width="47.666153"
       height="5.0843859"
       x="35.520111"
       y="197.37318" />
    <rect
       style="fill:#1a1a1a;stroke-width:0.992974"
       id="rect7"
       width="56.259216"
       height="6.4967203"
       x="208.0605"
       y="197.3268"
       inkscape:label="rect7" />
  </g>
</svg>
